HIERARCHY
ROOT hip
{
	OFFSET 0.000000 0.000000 0.000000
	CHANNELS 6 Xposition Yposition Zposition Xrotation Zrotation Yrotation 
	JOINT abdomen
	{
		OFFSET 0.000000 3.422050 0.000000
		CHANNELS 3 Xrotation Zrotation Yrotation 
		JOINT chest
		{
			OFFSET 0.000000 8.486693 -0.684411
			CHANNELS 3 Xrotation Zrotation Yrotation 
			JOINT neck
			{
				OFFSET 0.000000 10.266162 -0.273764
				CHANNELS 3 Xrotation Zrotation Yrotation 
				JOINT head
				{
					OFFSET 0.000000 3.148285 0.000000
					CHANNELS 3 Xrotation Zrotation Yrotation 
					End Site
					{
						OFFSET 0.000000 3.148289 0.000000
					}
				}
			}
			JOINT lCollar
			{
				OFFSET 3.422053 6.707223 -0.821293
				CHANNELS 3 Yrotation Zrotation Xrotation 
				JOINT lShldr
				{
					OFFSET 3.285171 0.000000 0.000000
					CHANNELS 3 Zrotation Yrotation Xrotation 
					JOINT lForeArm
					{
						OFFSET 10.129278 0.000000 0.000000
						CHANNELS 3 Yrotation Zrotation Xrotation 
						JOINT lHand
						{
							OFFSET 8.486692 0.000000 0.000000
							CHANNELS 3 Zrotation Yrotation Xrotation 
							End Site
							{
								OFFSET 4.106464 0.000000 0.000000
							}
						}
					}
				}
			}
			JOINT rCollar
			{
				OFFSET -3.558935 6.707223 -0.821293
				CHANNELS 3 Yrotation Zrotation Xrotation 
				JOINT rShldr
				{
					OFFSET -3.148289 0.000000 0.000000
					CHANNELS 3 Zrotation Yrotation Xrotation 
					JOINT rForeArm
					{
						OFFSET -10.266159 0.000000 0.000000
						CHANNELS 3 Yrotation Zrotation Xrotation 
						JOINT rHand
						{
							OFFSET -8.349810 0.000000 0.000000
							CHANNELS 3 Zrotation Yrotation Xrotation 
							End Site
							{
								OFFSET -4.106464 0.000000 0.000000
							}
						}
					}
				}
			}
		}
	}
	JOINT lThigh
	{
		OFFSET 5.338403 -1.642589 1.368821
		CHANNELS 3 Xrotation Zrotation Yrotation 
		JOINT lShin
		{
			OFFSET -2.053232 -20.121670 0.000000
			CHANNELS 3 Xrotation Zrotation Yrotation 
			JOINT lFoot
			{
				OFFSET 0.000000 -19.300380 -1.231939
				CHANNELS 3 Xrotation Yrotation Zrotation 
				End Site
				{
					OFFSET 0.000000 -2.463878 4.653993
				}
			}
		}
	}
	JOINT rThigh
	{
		OFFSET -5.338403 -1.642589 1.368821
		CHANNELS 3 Xrotation Zrotation Yrotation 
		JOINT rShin
		{
			OFFSET 2.053232 -20.121670 0.000000
			CHANNELS 3 Xrotation Zrotation Yrotation 
			JOINT rFoot
			{
				OFFSET 0.000000 -19.300380 -1.231939
				CHANNELS 3 Xrotation Yrotation Zrotation 
				End Site
				{
					OFFSET 0.000000 -2.463878 4.653993
				}
			}
		}
	}
}
MOTION
Frames: 16
Frame Time: 0.033264
0.000000 4.831345 0.000000 -90.001877 0.000000 0.000000 15.113802 0.011728 -0.088407 19.558256 -0.032351 -0.440286 28.997732 22.512451 -0.003443 3.301065 -10.071468 1.295810 9.466706 8.120720 -3.584852 -74.481087 -12.065618 -6.640521 -77.062485 8.701971 -6.298954 -45.016556 -5.053752 -28.383425 2.344621 -14.743780 -4.997804 69.832672 28.809341 -6.546858 79.487778 -10.622616 -6.243965 68.407806 4.037172 -12.333863 -132.489227 24.520407 0.576361 6.273848 -3.421099 0.034342 17.405043 2.324965 5.455095 -141.922729 -12.990618 -0.318902 35.329666 1.410060 -0.053621 19.032698 -1.776397 -5.014713 
0.000000 4.831345 0.000000 -90.001877 0.000000 0.000000 15.082518 0.011704 -0.088410 19.558256 -0.032351 -0.440286 28.997736 23.010389 -0.003521 3.440562 -10.058661 1.036343 9.466706 8.120720 -3.584852 -74.502518 -12.068357 -6.633583 -77.062485 8.701971 -6.298954 -45.016556 -5.053752 -28.383425 2.344621 -14.743780 -4.997804 69.864777 28.812269 -6.527411 79.523468 -10.614491 -6.237339 68.407806 4.037172 -12.333863 -132.467621 24.497982 0.571673 6.238145 -3.434176 0.035762 17.405043 2.324965 5.455095 -141.922729 -12.990618 -0.318902 35.284283 1.401726 -0.055213 19.032698 -1.776397 -5.014713 
0.000000 4.831345 0.000000 -90.001877 0.000000 0.000000 15.051239 0.011680 -0.088412 19.558254 -0.032351 -0.440286 28.997736 23.507923 -0.003600 3.579959 -10.045233 0.776981 9.466706 8.120720 -3.584852 -74.523956 -12.071095 -6.626645 -77.062485 8.701971 -6.298954 -45.016556 -5.053752 -28.383425 2.344621 -14.743780 -4.997804 69.896873 28.815189 -6.507966 79.559151 -10.606364 -6.230720 68.407806 4.037172 -12.333863 -132.446014 24.475557 0.566978 6.202443 -3.447252 0.037189 17.405043 2.324965 5.455095 -141.922729 -12.990618 -0.318902 35.238903 1.393390 -0.056799 19.032698 -1.776397 -5.014713 
0.000000 4.831345 0.000000 -90.001877 0.000000 0.000000 15.019958 0.011656 -0.088415 19.558256 -0.032351 -0.440286 28.997726 24.005041 -0.003679 3.719253 -10.031192 0.517729 9.466706 8.120720 -3.584852 -74.545387 -12.073831 -6.619706 -77.062485 8.701971 -6.298954 -45.016556 -5.053752 -28.383425 2.344621 -14.743780 -4.997804 69.928970 28.818094 -6.488514 79.594833 -10.598231 -6.224104 68.407806 4.037172 -12.333863 -132.424423 24.453138 0.562274 6.166739 -3.460326 0.038625 17.405043 2.324965 5.455095 -141.922729 -12.990618 -0.318902 35.193523 1.385053 -0.058378 19.032698 -1.776397 -5.014713 
0.000000 4.831345 0.000000 -90.001877 0.000000 0.000000 14.988678 0.011632 -0.088418 19.558256 -0.032351 -0.440286 28.997728 24.501734 -0.003757 3.858438 -10.016531 0.258591 9.466706 8.120720 -3.584852 -74.566811 -12.076563 -6.612766 -77.062485 8.701971 -6.298954 -45.016556 -5.053752 -28.383425 2.344621 -14.743780 -4.997804 69.961067 28.820995 -6.469067 79.630508 -10.590094 -6.217494 68.407806 4.037172 -12.333863 -132.402817 24.430712 0.557562 6.131034 -3.473399 0.040070 17.405043 2.324965 5.455095 -141.922729 -12.990618 -0.318902 35.148148 1.376715 -0.059951 19.032698 -1.776397 -5.014713 
0.000000 4.831345 0.000000 -90.001877 0.000000 0.000000 14.957396 0.011607 -0.088421 19.558256 -0.032351 -0.440286 28.997728 24.997972 -0.003836 3.997511 -10.001256 -0.000427 9.466706 8.120720 -3.584852 -74.588234 -12.079292 -6.605824 -77.062485 8.701971 -6.298954 -45.016556 -5.053752 -28.383425 2.344621 -14.743780 -4.997804 69.993179 28.823883 -6.449609 79.666183 -10.581952 -6.210889 68.407806 4.037172 -12.333863 -132.381226 24.408291 0.552839 6.095330 -3.486472 0.041522 17.405043 2.324965 5.455095 -141.922729 -12.990618 -0.318902 35.102776 1.368376 -0.061517 19.032698 -1.776397 -5.014713 
0.000000 4.831345 0.000000 -90.001877 0.000000 0.000000 14.926119 0.011583 -0.088424 19.558256 -0.032351 -0.440286 26.910500 24.997873 -0.003775 2.971728 -10.001256 -0.000446 9.466706 8.120720 -3.584852 -74.609680 -12.082021 -6.598882 -77.062485 8.701971 -6.298954 -45.016556 -5.053752 -28.383425 2.344621 -14.743780 -4.997804 70.025291 28.826769 -6.430154 79.701859 -10.573809 -6.204291 68.407806 4.037172 -12.333863 -132.359634 24.385872 0.548110 6.059625 -3.499543 0.042982 17.405043 2.324965 5.455095 -141.922729 -12.990618 -0.318902 35.057396 1.360036 -0.063076 19.032698 -1.776397 -5.014713 
0.000000 4.831345 0.000000 -90.001877 0.000000 0.000000 14.894838 0.011559 -0.088427 19.558256 -0.032351 -0.440286 24.803839 24.997776 -0.003708 1.943771 -10.001257 -0.000466 9.466706 8.120720 -3.584852 -74.631104 -12.084743 -6.591938 -77.062485 8.701971 -6.298954 -45.016556 -5.053752 -28.383425 2.344621 -14.743780 -4.997804 70.057388 28.829632 -6.410690 79.737526 -10.565659 -6.197698 68.407806 4.037172 -12.333863 -132.338043 24.363459 0.543373 6.023920 -3.512614 0.044451 17.405043 2.324965 5.455095 -141.922729 -12.990618 -0.318902 35.012024 1.351695 -0.064629 19.032698 -1.776397 -5.014713 
0.000000 4.831345 0.000000 -90.001877 0.000000 0.000000 14.863557 0.011535 -0.088429 19.558256 -0.032351 -0.440286 22.678934 24.997684 -0.003637 0.913800 -10.001256 -0.000485 9.466706 8.120720 -3.584852 -74.652534 -12.087466 -6.584994 -77.062485 8.701971 -6.298954 -45.016556 -5.053752 -28.383425 2.344621 -14.743780 -4.997804 70.089493 28.832493 -6.391227 79.773209 -10.557508 -6.191109 68.407806 4.037172 -12.333863 -132.316452 24.341043 0.538627 5.988215 -3.525683 0.045928 17.405043 2.324965 5.455095 -141.922729 -12.990618 -0.318902 34.966644 1.343353 -0.066175 19.032698 -1.776397 -5.014713 
0.000000 4.831345 0.000000 -90.001877 0.000000 0.000000 14.832276 0.011511 -0.088432 19.558256 -0.032351 -0.440286 20.537012 24.997593 -0.003563 -0.118026 -10.001255 -0.000504 9.466706 8.120720 -3.584852 -74.673973 -12.090187 -6.578048 -77.062485 8.701971 -6.298954 -45.016556 -5.053752 -28.383425 2.344621 -14.743780 -4.997804 70.121605 28.835344 -6.371768 79.808861 -10.549350 -6.184526 68.407806 4.037172 -12.333863 -132.294861 24.318630 0.533872 5.952509 -3.538751 0.047413 17.405043 2.324965 5.455095 -141.922729 -12.990618 -0.318902 34.921280 1.335009 -0.067715 19.032698 -1.776397 -5.014713 
0.000000 4.831345 0.000000 -90.001877 0.000000 0.000000 14.800996 0.011486 -0.088435 19.558256 -0.032351 -0.440286 18.379383 24.997501 -0.003482 -1.151543 -10.001258 -0.000524 9.466706 8.120720 -3.584852 -74.695396 -12.092903 -6.571102 -77.062485 8.701971 -6.298954 -45.016556 -5.053752 -28.383425 2.344621 -14.743780 -4.997804 70.153725 28.838190 -6.352302 79.844521 -10.541190 -6.177950 68.407806 4.037172 -12.333863 -132.273285 24.296219 0.529109 5.916803 -3.551819 0.048906 17.405043 2.324965 5.455095 -141.922729 -12.990618 -0.318902 34.875904 1.326665 -0.069248 19.032698 -1.776397 -5.014713 
0.000000 4.831345 0.000000 -90.001877 0.000000 0.000000 14.769717 0.011462 -0.088438 19.558256 -0.032351 -0.440286 16.207420 24.997408 -0.003399 -2.186586 -10.001259 -0.000543 9.466706 8.120720 -3.584852 -74.716843 -12.095618 -6.564153 -77.062485 8.701971 -6.298954 -45.016556 -5.053752 -28.383425 2.344621 -14.743780 -4.997804 70.185844 28.841021 -6.332829 79.880180 -10.533025 -6.171378 68.407806 4.037172 -12.333863 -132.251694 24.273815 0.524338 5.881096 -3.564884 0.050407 17.405043 2.324965 5.455095 -141.922729 -12.990618 -0.318902 34.830536 1.318319 -0.070774 19.032698 -1.776397 -5.014713 
0.000000 4.831345 0.000000 -90.001877 0.000000 0.000000 14.738441 0.011438 -0.088440 19.558256 -0.032351 -0.440286 14.022563 24.997322 -0.003310 -3.222991 -10.001262 -0.000563 9.466706 8.120720 -3.584852 -74.738266 -12.098329 -6.557204 -77.062485 8.701971 -6.298954 -45.016556 -5.053752 -28.383425 2.344621 -14.743780 -4.997804 70.217957 28.843845 -6.313362 79.915855 -10.524858 -6.164812 68.407806 4.037172 -12.333863 -132.230118 24.251408 0.519559 5.845389 -3.577949 0.051917 17.405043 2.324965 5.455095 -141.922729 -12.990618 -0.318902 34.785168 1.309973 -0.072293 19.032698 -1.776397 -5.014713 
0.000000 4.831345 0.000000 -90.001877 0.000000 0.000000 14.707160 0.011414 -0.088443 19.558256 -0.032351 -0.440286 11.826290 24.997240 -0.003218 -4.260588 -10.001265 -0.000582 9.466706 8.120720 -3.584852 -74.759697 -12.101040 -6.550254 -77.062485 8.701971 -6.298954 -45.016556 -5.053752 -28.383425 2.344621 -14.743780 -4.997804 70.250053 28.846649 -6.293894 79.951508 -10.516684 -6.158249 68.407806 4.037172 -12.333863 -132.208527 24.228996 0.514771 5.809682 -3.591014 0.053435 17.405043 2.324965 5.455095 -141.922729 -12.990618 -0.318902 34.739792 1.301625 -0.073806 19.032698 -1.776397 -5.014713 
0.000000 4.831345 0.000000 -90.001877 0.000000 0.000000 14.675882 0.011390 -0.088446 19.558256 -0.032351 -0.440286 9.620138 24.997160 -0.003122 -5.299212 -10.001266 -0.000601 9.466706 8.120720 -3.584852 -74.781143 -12.103748 -6.543304 -77.062485 8.701971 -6.298954 -45.016556 -5.053752 -28.383425 2.344621 -14.743780 -4.997804 70.282188 28.849459 -6.274415 79.987167 -10.508508 -6.151693 68.407806 4.037172 -12.333863 -132.186966 24.206596 0.509974 5.773973 -3.604075 0.054960 17.405043 2.324965 5.455095 -141.922729 -12.990618 -0.318902 34.694427 1.293277 -0.075313 19.032698 -1.776397 -5.014713 
0.000000 4.831345 0.000000 -90.001877 0.000000 0.000000 14.644606 0.011366 -0.088449 19.558256 -0.032351 -0.440286 7.405685 24.997087 -0.003022 -6.338691 -10.001266 -0.000621 9.466706 8.120720 -3.584852 -74.802582 -12.106452 -6.536352 -77.062485 8.701971 -6.298954 -45.016556 -5.053752 -28.383425 2.344621 -14.743780 -4.997804 70.314316 28.852253 -6.254938 80.022812 -10.500329 -6.145144 68.407806 4.037172 -12.333863 -132.165390 24.184198 0.505169 5.738265 -3.617138 0.056494 17.405043 2.324965 5.455095 -141.922729 -12.990618 -0.318902 34.649067 1.284927 -0.076812 19.032698 -1.776397 -5.014713 
